#!OML:ASF F:\VICON\USERDATA\INSTALL\rory3\rory3.ASF
:FULLY-SPECIFIED
:DEGREES
32
root 0.40235 17.7376 -17.0154 -1.17647 0.780133 2.66285
lowerback 10.3086 -0.933665 -4.4381
upperback -0.348617 -1.71433 1.14052
thorax -5.99416 -0.687428 3.96461
lowerneck -15.9637 -2.55009 -1.97582
upperneck 21.5561 -2.98407 -0.263639
head 9.46797 -1.58501 -0.14287
rclavicle -8.27441e-015 3.57812e-015
rhumerus -39.971 -28.9862 -70.2555
rradius 19.9976
rwrist 9.63484
rhand -18.952 18.8302
rfingers 7.12502
rthumb 7.35144 -11.0221
lclavicle -8.27441e-015 3.57812e-015
lhumerus -21.3233 3.87439 81.2195
lradius 31.5426
lwrist 9.93824
lhand -29.2264 27.0476
lfingers 7.12502
lthumb -2.57039 57.0118
rfemur -28.2513 8.80016 15.3759
rtibia 12.8114
rfoot -9.98974 -10.2511
rtoes -0.370321
lfemur 11.691 -2.36148 -27.0584
ltibia 18.4138
lfoot -16.0078 -0.432168
ltoes -5.44051
33
root 0.381768 17.7259 -16.8246 -1.2948 0.926838 2.59705
lowerback 10.478 -1.04533 -4.46327
upperback -0.472238 -1.8699 1.23939
thorax -6.20165 -0.752849 4.1153
lowerneck -15.8783 -2.42449 -2.04729
upperneck 21.8229 -2.79121 -0.274312
head 9.54513 -1.5035 -0.111048
rclavicle -1.02623e-014 5.1684e-015
rhumerus -40.5102 -28.9853 -69.7697
rradius 19.7418
rwrist 10.0338
rhand -18.7845 19.5453
rfingers 7.12502
rthumb 7.51317 -10.3013
lclavicle -1.02623e-014 5.1684e-015
lhumerus -21.4114 4.15169 81.2001
lradius 31.4766
lwrist 9.95519
lhand -29.375 26.9505
lfingers 7.12502
lthumb -2.71384 56.9129
rfemur -28.2253 8.21779 15.858
rtibia 13.8805
rfoot -9.69247 -10.0594
rtoes 0.187604
lfemur 12.1523 -2.71696 -26.9543
ltibia 19.063
lfoot -15.924 -0.595013
ltoes -7.32776
34
root 0.361181 17.7159 -16.6264 -1.62829 1.42492 2.61387
lowerback 10.7859 -1.18529 -4.45594
upperback -0.392224 -2.06732 1.24209
thorax -6.27061 -0.849154 4.15332
lowerneck -15.887 -2.41437 -2.1219
upperneck 21.804 -2.78843 -0.145276
head 9.54334 -1.49358 -0.0536415
rclavicle 4.05024e-015 4.37326e-015
rhumerus -40.7603 -29.4115 -69.3714
rradius 19.4369
rwrist 10.5632
rhand -18.4765 20.206
rfingers 7.12502
rthumb 7.81044 -9.62972
lclavicle 4.05024e-015 4.37326e-015
lhumerus -21.1888 4.19076 81.2455
lradius 31.2643
lwrist 9.87431
lhand -29.5447 25.3319
lfingers 7.12502
lthumb -2.87773 55.2922
rfemur -27.9106 7.66254 16.1292
rtibia 15.231
rfoot -10.1623 -9.67492
rtoes 0.488087
lfemur 12.8665 -3.283 -26.9211
ltibia 19.7869
lfoot -15.8422 -0.894451
ltoes -8.24812
35
root 0.336118 17.7041 -16.4257 -1.77386 1.59192 2.47034
lowerback 10.7048 -1.2014 -4.25109
upperback -0.235759 -2.05991 1.18524
thorax -6.06808 -0.862004 3.96877
lowerneck -16.3067 -2.5194 -1.90968
upperneck 22.0662 -2.97188 -0.190827
head 9.71134 -1.56531 -0.136338
rclavicle -3.24019e-014 1.07344e-014
rhumerus -40.7534 -29.9465 -69.3012
rradius 19.1746
rwrist 10.9546
rhand -18.5977 19.8692
rfingers 7.12502
rthumb 7.69349 -9.97084
lclavicle -3.24019e-014 1.07344e-014
lhumerus -21.0582 3.92943 81.196
lradius 31.4484
lwrist 9.89514
lhand -29.4103 23.6948
lfingers 7.12502
lthumb -2.74794 53.6569
rfemur -27.9168 7.38851 16.5961
rtibia 16.7964
rfoot -9.89916 -9.08325
rtoes 1.16949
lfemur 13.4164 -3.64538 -26.7187
ltibia 20.43
lfoot -15.535 -1.16671
ltoes -9.90247
36
root 0.312554 17.6969 -16.2239 -1.81256 1.62248 2.54778
lowerback 10.6957 -1.18829 -4.32858
upperback -0.247027 -2.05477 1.14155
thorax -6.07449 -0.857359 3.96557
lowerneck -16.6512 -2.56266 -1.85738
upperneck 22.3434 -3.03597 -0.209425
head 9.87359 -1.59189 -0.16731
rclavicle 3.97569e-016 -9.93923e-015
rhumerus -40.9608 -30.3899 -69.0067
rradius 18.8946
rwrist 11.5522
rhand -18.9981 18.9783
rfingers 7.12502
rthumb 7.30697 -10.8756
lclavicle 3.97569e-016 -9.93923e-015
lhumerus -21.1566 3.90635 81.2021
lradius 31.6916
lwrist 9.74052
lhand -28.8352 21.8686
lfingers 7.12502
lthumb -2.19256 51.8371
rfemur -27.965 6.94157 16.9154
rtibia 18.3261
rfoot -9.21831 -8.44724
rtoes 0.496478
lfemur 13.8716 -3.89901 -26.8002
ltibia 21.0396
lfoot -14.9771 -1.38229
ltoes -11.6507
37
root 0.287887 17.7067 -16.0212 -1.94393 1.80651 2.50272
lowerback 10.8423 -1.30965 -4.38586
upperback -0.354625 -2.22543 1.24622
thorax -6.24853 -0.930345 4.14335
lowerneck -16.4166 -2.48222 -2.00885
upperneck 22.4016 -2.89268 -0.191653
head 9.85213 -1.53753 -0.114114
rclavicle -4.79816e-014 -3.18055e-015
rhumerus -41.2976 -30.4535 -68.5714
rradius 18.6469
rwrist 12.1576
rhand -19.1599 18.4362
rfingers 7.12502
rthumb 7.15084 -11.423
lclavicle -4.79816e-014 -3.18055e-015
lhumerus -21.4132 4.28232 81.236
lradius 31.7111
lwrist 9.56871
lhand -27.087 15.9369
lfingers 7.12502
lthumb -0.504159 45.916
rfemur -27.7362 6.41288 17.366
rtibia 19.5949
rfoot -8.60521 -8.07799
rtoes -1.04934
lfemur 14.2308 -4.29967 -26.7627
ltibia 21.8025
lfoot -14.2292 -1.61384
ltoes -11.6762
38
root 0.263198 17.725 -15.8222 -2.02555 1.85634 2.4186
lowerback 10.9509 -1.36625 -4.3571
upperback -0.56958 -2.30084 1.32192
thorax -6.5291 -0.95415 4.22967
lowerneck -15.8917 -2.36597 -2.1205
upperneck 22.4791 -2.72615 -0.144239
head 9.78196 -1.46648 -0.050743
rclavicle 7.4917e-015 -7.15625e-015
rhumerus -42.0053 -30.647 -67.8909
rradius 18.4467
rwrist 12.7974
rhand -18.8047 18.8502
rfingers 7.12502
rthumb 7.49366 -10.997
lclavicle 7.4917e-015 -7.15625e-015
lhumerus -21.9692 4.23139 81.2686
lradius 31.7766
lwrist 9.73788
lhand -28.9287 20.9613
lfingers 7.12502
lthumb -2.28287 50.9288
rfemur -27.7034 5.99998 17.7862
rtibia 20.738
rfoot -7.3208 -7.83866
rtoes -0.17709
lfemur 14.3797 -4.51926 -26.6414
ltibia 22.6617
lfoot -13.4286 -2.17345
ltoes -12.7429
39
root 0.238783 17.7454 -15.6218 -2.00991 1.89902 2.03612
lowerback 10.8922 -1.39614 -3.95969
upperback -0.693342 -2.28179 1.41918
thorax -6.64006 -0.951377 4.10597
lowerneck -15.7893 -2.33468 -2.10828
upperneck 22.6468 -2.68024 -0.18042
head 9.82104 -1.44914 -0.0593522
rclavicle 3.2054e-015 -9.93923e-015
rhumerus -42.4789 -31.0228 -67.346
rradius 18.2023
rwrist 13.2231
rhand -18.7351 19.3736
rfingers 7.12502
rthumb 7.56086 -10.4713
lclavicle 3.2054e-015 -9.93923e-015
lhumerus -22.292 4.12366 81.3177
lradius 31.7982
lwrist 9.73875
lhand -29.6897 21.8345
lfingers 7.12502
lthumb -3.01777 51.7929
rfemur -27.8225 5.74855 18.3964
rtibia 21.7221
rfoot -6.08362 -7.69937
rtoes 0.790639
lfemur 14.3235 -4.69568 -26.1501
ltibia 23.7008
lfoot -12.6169 -3.22469
ltoes -14.7401
40
root 0.219829 17.7649 -15.4116 -2.19791 1.95121 1.58261
lowerback 10.8312 -1.43163 -3.47384
upperback -0.589065 -2.2534 1.55175
thorax -6.50934 -0.957632 3.96134
lowerneck -15.9723 -2.38512 -2.08418
upperneck 22.7378 -2.73126 -0.266623
head 9.88683 -1.4804 -0.103246
rclavicle -3.05631e-015 -1.59028e-015
rhumerus -42.5335 -31.6739 -66.8999
rradius 17.8806
rwrist 13.9363
rhand -18.8528 19.3766
rfingers 7.12502
rthumb 7.44728 -10.4723
lclavicle -3.05631e-015 -1.59028e-015
lhumerus -22.2654 4.30186 81.4546
lradius 31.6542
lwrist 9.50036
lhand -29.2986 19.7327
lfingers 7.12502
lthumb -2.64008 49.6961
rfemur -27.5981 5.82541 18.9707
rtibia 22.6013
rfoot -5.43273 -7.67135
rtoes 1.07802
lfemur 14.4042 -5.0635 -25.7188
ltibia 25.0266
lfoot -11.4756 -3.74421
ltoes -14.9721
41
root 0.202922 17.7834 -15.2031 -2.37944 2.04745 1.24731
lowerback 10.7861 -1.50283 -3.08164
upperback -0.486045 -2.289 1.64797
thorax -6.3816 -0.99179 3.84169
lowerneck -16.1833 -2.39178 -1.98244
upperneck 22.8716 -2.72193 -0.429766
head 9.97021 -1.4862 -0.179972
rclavicle -1.09953e-014 -2.38542e-015
rhumerus -42.5886 -32.6473 -66.2498
rradius 17.3967
rwrist 15.0262
rhand -18.9093 19.4103
rfingers 7.12502
rthumb 7.39269 -10.4405
lclavicle -1.09953e-014 -2.38542e-015
lhumerus -22.465 4.48018 81.5391
lradius 31.8143
lwrist 9.42453
lhand -28.6335 16.7307
lfingers 7.12502
lthumb -1.99776 46.701
rfemur -27.2586 5.86105 19.3871
rtibia 23.3747
rfoot -5.35481 -7.1544
rtoes 0.906045
lfemur 14.3269 -5.39128 -25.4193
ltibia 26.7024
lfoot -10.2788 -3.39841
ltoes -16.7035
